# Blender 4.5.4 LTS
# www.blender.org
mtllib Fireball.mtl
o Icosphere
v 0.000000 0.000000 -1.000000
v 0.689037 -0.505669 -0.433535
v -0.250177 -0.769980 -0.404809
v -0.886185 -0.000720 -0.444138
v -0.267309 0.822708 -0.432530
v 0.652336 0.473944 -0.403171
v 0.521688 -0.737028 1.506043
v -0.744989 -0.072679 1.192409
v -0.670089 0.457223 0.583097
v 0.363617 1.074355 0.529609
v 0.830891 -0.144009 0.563125
v -0.052786 0.059833 1.877476
v -0.178173 -0.548369 -0.932953
v 0.439635 -0.319410 -0.879279
v 0.263586 -0.811220 -0.527173
v 0.811834 0.002701 -0.507674
v 0.478778 0.347849 -0.957566
v -0.535459 0.000000 -0.866394
v -0.680760 -0.494599 -0.520060
v -0.164970 0.507735 -0.863821
v -0.743889 0.535658 -0.558198
v 0.246758 0.759429 -0.493516
v 0.553030 -0.200539 1.414371
v 0.964002 0.310896 0.000664
v -0.000000 -1.000000 -0.000000
v 0.576405 -0.797401 0.000385
v -0.886430 -0.293695 -0.000262
v -0.610257 -0.839045 0.000723
v -0.521181 0.739929 -0.000238
v -0.688673 0.243023 1.435941
v 0.563117 0.776097 -0.000721
v 0.000000 1.000000 0.000000
v 0.613348 -0.675644 0.505430
v -0.283178 -0.854429 0.551473
v -0.837277 0.013452 0.541614
v -0.254379 0.661600 1.602807
v 0.428729 0.322918 1.406580
v 0.156927 -0.459101 0.636039
v 0.533162 -0.005151 0.858239
v -0.409921 -0.388234 1.107010
v -0.523071 0.308202 0.929660
v 0.176267 0.551318 0.915717
vn 0.1465 -0.1668 -0.9750
vn 0.7874 -0.2709 -0.5538
vn -0.2419 -0.0399 -0.9695
vn -0.2382 0.1786 -0.9546
vn -0.0833 0.2328 -0.9689
vn 0.9699 -0.2186 0.1075
vn -0.1688 -0.8981 -0.4060
vn -0.9110 -0.3439 -0.2275
vn -0.4885 0.8641 -0.1214
vn 0.5855 0.7053 -0.3997
vn 0.9706 -0.2155 0.1070
vn -0.2379 -0.9003 -0.3645
vn -0.9875 0.1321 0.0866
vn -0.4446 0.8911 -0.0905
vn 0.7216 0.6209 -0.3062
vn 0.4489 0.8885 0.0956
vn -0.5415 -0.7007 0.4645
vn -0.8384 0.2717 0.4725
vn 0.8503 0.0794 0.5202
vn 0.1311 -0.8395 0.5273
vn 0.7827 0.4586 0.4208
vn -0.8216 -0.5444 0.1692
vn -0.5472 0.6151 0.5676
vn -0.2974 0.8770 0.3774
vn 0.3149 -0.8863 0.3396
vn -0.9240 -0.0242 0.3816
vn -0.8989 -0.0348 0.4369
vn -0.7875 0.0289 0.6157
vn 0.6855 0.7281 -0.0008
vn 0.2286 -0.8839 0.4081
vn 0.4466 -0.6326 0.6327
vn -0.6396 0.6129 0.4640
vn 0.6049 -0.6932 0.3919
vn 0.0343 -0.4622 0.8861
vn 0.5871 -0.3209 0.7432
vn 0.9226 0.1626 0.3499
vn 0.7286 0.6286 0.2720
vn 0.9367 0.2973 0.1852
vn -0.3806 0.9152 0.1328
vn -0.4435 0.8886 0.1172
vn -0.7103 0.6874 0.1518
vn 0.9358 -0.3463 -0.0666
vn 0.9485 0.2308 -0.2169
vn -0.9888 -0.0723 0.1307
vn -0.6417 -0.6760 0.3622
vn -0.2529 -0.9596 0.1234
vn -0.1012 -0.9735 0.2050
vn 0.8770 -0.4778 0.0510
vn 0.8830 0.4374 -0.1700
vn -0.8828 0.3897 -0.2623
vn 0.3445 0.8677 -0.3584
vn 0.3566 0.8976 -0.2593
vn 0.0631 0.9092 -0.4116
vn 0.6980 -0.6980 -0.1601
vn -0.8052 0.5832 0.1079
vn -0.9609 0.2690 0.0661
vn -0.8767 -0.4436 0.1862
vn -0.8782 -0.4450 -0.1755
vn -0.3811 -0.7940 -0.4736
vn 0.3312 -0.9423 0.0498
vn 0.3269 -0.9297 -0.1695
vn 0.5972 -0.7288 -0.3350
vn -0.9422 -0.1139 -0.3151
vn 0.8524 -0.5195 0.0598
vn 0.8010 0.3747 -0.4669
vn 0.5901 0.7275 -0.3502
vn 0.0988 0.7685 -0.6322
vn 0.0304 0.8106 -0.5848
vn -0.2855 0.7404 -0.6085
vn -0.4305 0.3184 -0.8446
vn -0.7675 0.0681 -0.6374
vn -0.7508 -0.2164 -0.6240
vn -0.6219 -0.3183 -0.7155
vn -0.4156 -0.8171 -0.3995
vn 0.8596 0.3693 -0.3531
vn 0.7516 -0.1202 -0.6486
vn 0.1773 -0.1249 -0.9762
vn -0.1678 -0.9007 -0.4008
vn 0.2941 -0.6237 -0.7242
vn 0.5594 -0.6055 -0.5660
vt 0.181819 0.000000
vt 0.227273 0.078731
vt 0.136365 0.078731
vt 0.272728 0.157461
vt 0.318182 0.078731
vt 0.363637 0.157461
vt 0.909091 0.000000
vt 0.954545 0.078731
vt 0.863636 0.078731
vt 0.727273 0.000000
vt 0.772727 0.078731
vt 0.681818 0.078731
vt 0.545455 0.000000
vt 0.590909 0.078731
vt 0.500000 0.078731
vt 0.318182 0.236191
vt 0.090910 0.157461
vt 0.181819 0.157461
vt 0.136365 0.236191
vt 0.818182 0.157461
vt 0.909091 0.157461
vt 0.863636 0.236191
vt 0.636364 0.157461
vt 0.727273 0.157461
vt 0.681818 0.236191
vt 0.454546 0.157461
vt 0.545455 0.157461
vt 0.500000 0.236191
vt 0.227273 0.236191
vt 0.045455 0.236191
vt 0.772727 0.236191
vt 0.590909 0.236191
vt 0.409092 0.236191
vt 0.181819 0.314921
vt 0.272728 0.314921
vt 0.227273 0.393651
vt 0.000000 0.314921
vt 0.090910 0.314921
vt 0.045455 0.393651
vt 0.727273 0.314921
vt 0.818182 0.314921
vt 0.772727 0.393651
vt 0.545455 0.314921
vt 0.636364 0.314921
vt 0.590909 0.393651
vt 0.363637 0.314921
vt 0.454546 0.314921
vt 0.409092 0.393651
vt 0.500000 0.393651
vt 0.454546 0.472382
vt 0.681818 0.393651
vt 0.636364 0.472382
vt 0.863636 0.393651
vt 0.818182 0.472382
vt 0.909091 0.314921
vt 0.136365 0.393651
vt 0.090910 0.472382
vt 0.318182 0.393651
vt 0.272728 0.472382
vt 0.954545 0.236191
vt 1.000000 0.157461
vt 0.409092 0.078731
vt 0.363637 0.000000
s 0
usemtl Material.001
f 1/1/1 14/2/1 13/3/1
f 2/4/2 14/5/2 16/6/2
f 1/7/3 13/8/3 18/9/3
f 1/10/4 18/11/4 20/12/4
f 1/13/5 20/14/5 17/15/5
f 2/4/6 16/6/6 23/16/6
f 3/17/7 15/18/7 25/19/7
f 4/20/8 19/21/8 27/22/8
f 5/23/9 21/24/9 29/25/9
f 6/26/10 22/27/10 31/28/10
f 2/4/11 23/16/11 26/29/11
f 3/17/12 25/19/12 28/30/12
f 4/20/13 27/22/13 30/31/13
f 5/23/14 29/25/14 32/32/14
f 6/26/15 31/28/15 24/33/15
f 7/34/16 33/35/16 38/36/16
f 8/37/17 34/38/17 40/39/17
f 9/40/18 35/41/18 41/42/18
f 10/43/19 36/44/19 42/45/19
f 11/46/20 37/47/20 39/48/20
f 39/48/21 42/49/21 12/50/21
f 39/48/22 37/47/22 42/49/22
f 37/47/23 10/43/23 42/49/23
f 42/45/24 41/51/24 12/52/24
f 42/45/25 36/44/25 41/51/25
f 36/44/26 9/40/26 41/51/26
f 41/42/27 40/53/27 12/54/27
f 41/42/28 35/41/28 40/53/28
f 35/41/29 8/55/29 40/53/29
f 40/39/30 38/56/30 12/57/30
f 40/39/31 34/38/31 38/56/31
f 34/38/32 7/34/32 38/56/32
f 38/36/33 39/58/33 12/59/33
f 38/36/34 33/35/34 39/58/34
f 33/35/35 11/46/35 39/58/35
f 24/33/36 37/47/36 11/46/36
f 24/33/37 31/28/37 37/47/37
f 31/28/38 10/43/38 37/47/38
f 32/32/39 36/44/39 10/43/39
f 32/32/40 29/25/40 36/44/40
f 29/25/41 9/40/41 36/44/41
f 30/31/42 35/41/42 9/40/42
f 30/31/43 27/22/43 35/41/43
f 27/22/44 8/55/44 35/41/44
f 28/30/45 34/38/45 8/37/45
f 28/30/46 25/19/46 34/38/46
f 25/19/47 7/34/47 34/38/47
f 26/29/48 33/35/48 7/34/48
f 26/29/49 23/16/49 33/35/49
f 23/16/50 11/46/50 33/35/50
f 31/28/51 32/32/51 10/43/51
f 31/28/52 22/27/52 32/32/52
f 22/27/53 5/23/53 32/32/53
f 29/25/54 30/31/54 9/40/54
f 29/25/55 21/24/55 30/31/55
f 21/24/56 4/20/56 30/31/56
f 27/22/57 28/60/57 8/55/57
f 27/22/58 19/21/58 28/60/58
f 19/21/59 3/61/59 28/60/59
f 25/19/60 26/29/60 7/34/60
f 25/19/61 15/18/61 26/29/61
f 15/18/62 2/4/62 26/29/62
f 23/16/63 24/33/63 11/46/63
f 23/16/64 16/6/64 24/33/64
f 16/6/65 6/26/65 24/33/65
f 17/15/66 22/27/66 6/26/66
f 17/15/67 20/14/67 22/27/67
f 20/14/68 5/23/68 22/27/68
f 20/12/69 21/24/69 5/23/69
f 20/12/70 18/11/70 21/24/70
f 18/11/71 4/20/71 21/24/71
f 18/9/72 19/21/72 4/20/72
f 18/9/73 13/8/73 19/21/73
f 13/8/74 3/61/74 19/21/74
f 16/6/75 17/62/75 6/26/75
f 16/6/76 14/5/76 17/62/76
f 14/5/77 1/63/77 17/62/77
f 13/3/78 15/18/78 3/17/78
f 13/3/79 14/2/79 15/18/79
f 14/2/80 2/4/80 15/18/80
