# Blender 4.2.3 LTS
# www.blender.org
mtllib Ramp.mtl
o Ramp
v -1.000000 -1.000000 0.000000
v -1.000000 1.000000 0.000000
v -1.000000 1.000000 2.000000
v 1.000000 -1.000000 0.000000
v 1.000000 1.000000 0.000000
v 1.000000 1.000000 2.000000
vn -1.0000 -0.0000 -0.0000
vn -0.0000 1.0000 -0.0000
vn 1.0000 -0.0000 -0.0000
vn -0.0000 -0.7071 0.7071
vn -0.0000 -0.0000 -1.0000
vt 0.089549 0.197824
s 1
usemtl Material.003
f 1/1/1 3/1/1 2/1/1
f 3/1/2 5/1/2 2/1/2
f 5/1/3 6/1/3 4/1/3
f 6/1/4 1/1/4 4/1/4
f 5/1/5 1/1/5 2/1/5
f 3/1/2 6/1/2 5/1/2
f 6/1/4 3/1/4 1/1/4
f 5/1/5 4/1/5 1/1/5
