# Blender 4.5.4 LTS
# www.blender.org
mtllib Web.mtl
o Circle
v 0.000000 -0.031000 -1.000000
v 0.000000 0.031000 -1.000000
v -0.707107 -0.031000 -0.707107
v -0.707107 0.031000 -0.707107
v -1.000000 -0.031000 0.000000
v -1.000000 0.031000 0.000000
v -0.707107 -0.031000 0.707107
v -0.707107 0.031000 0.707107
v 0.000000 -0.031000 1.000000
v 0.000000 0.031000 1.000000
v 0.707107 -0.031000 0.707107
v 0.707107 0.031000 0.707107
v 1.000000 -0.031000 0.000000
v 1.000000 0.031000 0.000000
v 0.707107 -0.031000 -0.707107
v 0.707107 0.031000 -0.707107
v -0.566736 -0.031000 -0.566736
v -0.566736 0.031000 -0.566736
v -0.801486 -0.031000 0.000000
v -0.801486 0.031000 0.000000
v -0.566736 -0.031000 0.566736
v -0.566736 0.031000 0.566736
v 0.000000 -0.031000 0.801486
v 0.000000 0.031000 0.801486
v 0.566736 -0.031000 0.566736
v 0.566736 0.031000 0.566736
v 0.801486 -0.031000 0.000000
v 0.801486 0.031000 0.000000
v 0.566736 -0.031000 -0.566736
v 0.566736 0.031000 -0.566736
v 0.000000 -0.031000 -0.801486
v 0.000000 0.031000 -0.801486
v -0.303144 -0.031000 -0.303144
v -0.303144 0.031000 -0.303144
v -0.428710 -0.031000 0.000000
v -0.428710 0.031000 0.000000
v -0.303144 -0.031000 0.303144
v -0.303144 0.031000 0.303144
v 0.000000 -0.031000 0.428710
v 0.000000 0.031000 0.428710
v 0.303144 -0.031000 0.303144
v 0.303144 0.031000 0.303144
v 0.428710 -0.031000 0.000000
v 0.428710 0.031000 0.000000
v 0.303144 -0.031000 -0.303144
v 0.303144 0.031000 -0.303144
v 0.000000 -0.031000 -0.428710
v 0.000000 0.031000 -0.428710
v -0.090962 -0.031000 -0.090962
v -0.090962 0.031000 -0.090962
v -0.128640 -0.031000 0.000000
v -0.128640 0.031000 0.000000
v -0.090962 -0.031000 0.090962
v -0.090962 0.031000 0.090962
v 0.000000 -0.031000 0.128640
v 0.000000 0.031000 0.128640
v 0.090962 -0.031000 0.090962
v 0.090962 0.031000 0.090962
v 0.128640 -0.031000 0.000000
v 0.128640 0.031000 0.000000
v 0.090962 -0.031000 -0.090962
v 0.090962 0.031000 -0.090962
v 0.000000 -0.031000 -0.128640
v 0.000000 0.031000 -0.128640
v -0.067236 0.000000 -0.067236
v -0.095086 0.000000 0.000000
v -0.067236 0.000000 0.067236
v 0.000000 0.000000 0.095086
v 0.067236 0.000000 0.067236
v 0.095086 0.000000 0.000000
v 0.067236 0.000000 -0.067236
v 0.000000 0.000000 -0.095086
v -0.696221 0.000000 -0.652380
v -0.953605 0.000000 -0.031000
v -0.822199 0.000000 -0.031000
v -0.603303 0.000000 -0.559463
v -0.953605 0.000000 0.031000
v -0.696221 0.000000 0.652380
v -0.603303 0.000000 0.559463
v -0.822199 0.000000 0.031000
v -0.652380 0.000000 0.696221
v -0.031000 0.000000 0.953605
v -0.031000 0.000000 0.822199
v -0.559463 0.000000 0.603303
v 0.031000 0.000000 0.953605
v 0.652380 0.000000 0.696221
v 0.559463 0.000000 0.603303
v 0.031000 0.000000 0.822199
v 0.696221 0.000000 0.652380
v 0.953605 0.000000 0.031000
v 0.822199 0.000000 0.031000
v 0.603303 0.000000 0.559463
v 0.953605 0.000000 -0.031000
v 0.696221 0.000000 -0.652380
v 0.603303 0.000000 -0.559463
v 0.822199 0.000000 -0.031000
v 0.652380 0.000000 -0.696221
v 0.031000 0.000000 -0.953605
v 0.031000 0.000000 -0.822199
v 0.559463 0.000000 -0.603303
v -0.031000 0.000000 -0.953605
v -0.652380 0.000000 -0.696221
v -0.559463 0.000000 -0.603303
v -0.031000 0.000000 -0.822199
v -0.555850 0.000000 -0.512010
v -0.755091 0.000000 -0.031000
v -0.449423 0.000000 -0.031000
v -0.339711 0.000000 -0.295870
v -0.755091 0.000000 0.031000
v -0.555850 0.000000 0.512010
v -0.339711 0.000000 0.295870
v -0.449423 0.000000 0.031000
v -0.512010 0.000000 0.555850
v -0.031000 0.000000 0.755091
v -0.031000 0.000000 0.449423
v -0.295870 0.000000 0.339711
v 0.031000 0.000000 0.755091
v 0.512010 0.000000 0.555850
v 0.295870 0.000000 0.339711
v 0.031000 0.000000 0.449423
v 0.555850 0.000000 0.512010
v 0.755091 0.000000 0.031000
v 0.449423 0.000000 0.031000
v 0.339711 0.000000 0.295870
v 0.755091 0.000000 -0.031000
v 0.555850 0.000000 -0.512010
v 0.339711 0.000000 -0.295870
v 0.449423 0.000000 -0.031000
v 0.512010 0.000000 -0.555850
v 0.031000 0.000000 -0.755091
v 0.031000 0.000000 -0.449423
v 0.295870 0.000000 -0.339711
v -0.031000 0.000000 -0.755091
v -0.512010 0.000000 -0.555850
v -0.295870 0.000000 -0.339711
v -0.031000 0.000000 -0.449423
v -0.292258 0.000000 -0.248417
v -0.382315 0.000000 -0.031000
v -0.149353 0.000000 -0.031000
v -0.127529 0.000000 -0.083688
v -0.382315 0.000000 0.031000
v -0.292258 0.000000 0.248417
v -0.127529 0.000000 0.083688
v -0.149353 0.000000 0.031000
v -0.248417 0.000000 0.292258
v -0.031000 0.000000 0.382315
v -0.031000 0.000000 0.149353
v -0.083688 0.000000 0.127529
v 0.031000 0.000000 0.382315
v 0.248417 0.000000 0.292258
v 0.083688 0.000000 0.127529
v 0.031000 0.000000 0.149353
v 0.292258 0.000000 0.248417
v 0.382315 0.000000 0.031000
v 0.149353 0.000000 0.031000
v 0.127529 0.000000 0.083688
v 0.382315 0.000000 -0.031000
v 0.292258 0.000000 -0.248417
v 0.127529 0.000000 -0.083688
v 0.149353 0.000000 -0.031000
v 0.248417 0.000000 -0.292258
v 0.031000 0.000000 -0.382315
v 0.031000 0.000000 -0.149353
v 0.083688 0.000000 -0.127529
v -0.031000 0.000000 -0.382315
v -0.248417 0.000000 -0.292258
v -0.083688 0.000000 -0.127529
v -0.031000 0.000000 -0.149353
vn 0.6533 -0.7071 0.2706
vn 0.6533 0.7071 0.2706
vn 0.6533 -0.7071 -0.2706
vn 0.6533 0.7071 -0.2706
vn 0.2706 -0.7071 -0.6533
vn 0.2706 0.7071 -0.6533
vn -0.2706 -0.7071 -0.6533
vn -0.2706 0.7071 -0.6533
vn -0.6533 -0.7071 -0.2706
vn -0.6533 0.7071 -0.2706
vn -0.6533 -0.7071 0.2706
vn -0.6533 0.7071 0.2706
vn -0.2706 -0.7071 0.6533
vn -0.2706 0.7071 0.6533
vn 0.2706 -0.7071 0.6533
vn 0.2706 0.7071 0.6533
vn -0.0000 -0.7071 -0.7071
vn -0.0000 0.7071 -0.7071
vn -0.5000 -0.7071 0.5000
vn -0.5000 0.7071 0.5000
vn -0.5000 -0.7071 -0.5000
vn -0.5000 0.7071 -0.5000
vn -0.0000 -0.7071 0.7071
vn -0.0000 0.7071 0.7071
vn -0.7071 -0.7071 -0.0000
vn -0.7071 0.7071 -0.0000
vn 0.5000 -0.7071 0.5000
vn 0.5000 0.7071 0.5000
vn 0.7071 -0.7071 -0.0000
vn 0.7071 0.7071 -0.0000
vn 0.5000 -0.7071 -0.5000
vn 0.5000 0.7071 -0.5000
vt 0.000000 0.000000
s 0
usemtl Material.001
f 65/1/1 66/1/1 51/1/1 49/1/1
f 66/1/2 65/1/2 50/1/2 52/1/2
f 66/1/3 67/1/3 53/1/3 51/1/3
f 67/1/4 66/1/4 52/1/4 54/1/4
f 67/1/5 68/1/5 55/1/5 53/1/5
f 68/1/6 67/1/6 54/1/6 56/1/6
f 68/1/7 69/1/7 57/1/7 55/1/7
f 69/1/8 68/1/8 56/1/8 58/1/8
f 69/1/9 70/1/9 59/1/9 57/1/9
f 70/1/10 69/1/10 58/1/10 60/1/10
f 70/1/11 71/1/11 61/1/11 59/1/11
f 71/1/12 70/1/12 60/1/12 62/1/12
f 71/1/13 72/1/13 63/1/13 61/1/13
f 72/1/14 71/1/14 62/1/14 64/1/14
f 72/1/15 65/1/15 49/1/15 63/1/15
f 65/1/16 72/1/16 64/1/16 50/1/16
f 73/1/1 74/1/1 5/1/1 3/1/1
f 74/1/2 73/1/2 4/1/2 6/1/2
f 74/1/17 75/1/17 19/1/17 5/1/17
f 75/1/18 74/1/18 6/1/18 20/1/18
f 75/1/9 76/1/9 17/1/9 19/1/9
f 76/1/10 75/1/10 20/1/10 18/1/10
f 76/1/19 73/1/19 3/1/19 17/1/19
f 73/1/20 76/1/20 18/1/20 4/1/20
f 77/1/3 78/1/3 7/1/3 5/1/3
f 78/1/4 77/1/4 6/1/4 8/1/4
f 78/1/21 79/1/21 21/1/21 7/1/21
f 79/1/22 78/1/22 8/1/22 22/1/22
f 79/1/11 80/1/11 19/1/11 21/1/11
f 80/1/12 79/1/12 22/1/12 20/1/12
f 80/1/23 77/1/23 5/1/23 19/1/23
f 77/1/24 80/1/24 20/1/24 6/1/24
f 81/1/5 82/1/5 9/1/5 7/1/5
f 82/1/6 81/1/6 8/1/6 10/1/6
f 82/1/25 83/1/25 23/1/25 9/1/25
f 83/1/26 82/1/26 10/1/26 24/1/26
f 83/1/13 84/1/13 21/1/13 23/1/13
f 84/1/14 83/1/14 24/1/14 22/1/14
f 84/1/27 81/1/27 7/1/27 21/1/27
f 81/1/28 84/1/28 22/1/28 8/1/28
f 85/1/7 86/1/7 11/1/7 9/1/7
f 86/1/8 85/1/8 10/1/8 12/1/8
f 86/1/19 87/1/19 25/1/19 11/1/19
f 87/1/20 86/1/20 12/1/20 26/1/20
f 87/1/15 88/1/15 23/1/15 25/1/15
f 88/1/16 87/1/16 26/1/16 24/1/16
f 88/1/29 85/1/29 9/1/29 23/1/29
f 85/1/30 88/1/30 24/1/30 10/1/30
f 89/1/9 90/1/9 13/1/9 11/1/9
f 90/1/10 89/1/10 12/1/10 14/1/10
f 90/1/23 91/1/23 27/1/23 13/1/23
f 91/1/24 90/1/24 14/1/24 28/1/24
f 91/1/1 92/1/1 25/1/1 27/1/1
f 92/1/2 91/1/2 28/1/2 26/1/2
f 92/1/31 89/1/31 11/1/31 25/1/31
f 89/1/32 92/1/32 26/1/32 12/1/32
f 93/1/11 94/1/11 15/1/11 13/1/11
f 94/1/12 93/1/12 14/1/12 16/1/12
f 94/1/27 95/1/27 29/1/27 15/1/27
f 95/1/28 94/1/28 16/1/28 30/1/28
f 95/1/3 96/1/3 27/1/3 29/1/3
f 96/1/4 95/1/4 30/1/4 28/1/4
f 96/1/17 93/1/17 13/1/17 27/1/17
f 93/1/18 96/1/18 28/1/18 14/1/18
f 97/1/13 98/1/13 1/1/13 15/1/13
f 98/1/14 97/1/14 16/1/14 2/1/14
f 98/1/29 99/1/29 31/1/29 1/1/29
f 99/1/30 98/1/30 2/1/30 32/1/30
f 99/1/5 100/1/5 29/1/5 31/1/5
f 100/1/6 99/1/6 32/1/6 30/1/6
f 100/1/21 97/1/21 15/1/21 29/1/21
f 97/1/22 100/1/22 30/1/22 16/1/22
f 101/1/15 102/1/15 3/1/15 1/1/15
f 102/1/16 101/1/16 2/1/16 4/1/16
f 102/1/31 103/1/31 17/1/31 3/1/31
f 103/1/32 102/1/32 4/1/32 18/1/32
f 103/1/7 104/1/7 31/1/7 17/1/7
f 104/1/8 103/1/8 18/1/8 32/1/8
f 104/1/25 101/1/25 1/1/25 31/1/25
f 101/1/26 104/1/26 32/1/26 2/1/26
f 105/1/1 106/1/1 19/1/1 17/1/1
f 106/1/2 105/1/2 18/1/2 20/1/2
f 106/1/17 107/1/17 35/1/17 19/1/17
f 107/1/18 106/1/18 20/1/18 36/1/18
f 107/1/9 108/1/9 33/1/9 35/1/9
f 108/1/10 107/1/10 36/1/10 34/1/10
f 108/1/19 105/1/19 17/1/19 33/1/19
f 105/1/20 108/1/20 34/1/20 18/1/20
f 109/1/3 110/1/3 21/1/3 19/1/3
f 110/1/4 109/1/4 20/1/4 22/1/4
f 110/1/21 111/1/21 37/1/21 21/1/21
f 111/1/22 110/1/22 22/1/22 38/1/22
f 111/1/11 112/1/11 35/1/11 37/1/11
f 112/1/12 111/1/12 38/1/12 36/1/12
f 112/1/23 109/1/23 19/1/23 35/1/23
f 109/1/24 112/1/24 36/1/24 20/1/24
f 113/1/5 114/1/5 23/1/5 21/1/5
f 114/1/6 113/1/6 22/1/6 24/1/6
f 114/1/25 115/1/25 39/1/25 23/1/25
f 115/1/26 114/1/26 24/1/26 40/1/26
f 115/1/13 116/1/13 37/1/13 39/1/13
f 116/1/14 115/1/14 40/1/14 38/1/14
f 116/1/27 113/1/27 21/1/27 37/1/27
f 113/1/28 116/1/28 38/1/28 22/1/28
f 117/1/7 118/1/7 25/1/7 23/1/7
f 118/1/8 117/1/8 24/1/8 26/1/8
f 118/1/19 119/1/19 41/1/19 25/1/19
f 119/1/20 118/1/20 26/1/20 42/1/20
f 119/1/15 120/1/15 39/1/15 41/1/15
f 120/1/16 119/1/16 42/1/16 40/1/16
f 120/1/29 117/1/29 23/1/29 39/1/29
f 117/1/30 120/1/30 40/1/30 24/1/30
f 121/1/9 122/1/9 27/1/9 25/1/9
f 122/1/10 121/1/10 26/1/10 28/1/10
f 122/1/23 123/1/23 43/1/23 27/1/23
f 123/1/24 122/1/24 28/1/24 44/1/24
f 123/1/1 124/1/1 41/1/1 43/1/1
f 124/1/2 123/1/2 44/1/2 42/1/2
f 124/1/31 121/1/31 25/1/31 41/1/31
f 121/1/32 124/1/32 42/1/32 26/1/32
f 125/1/11 126/1/11 29/1/11 27/1/11
f 126/1/12 125/1/12 28/1/12 30/1/12
f 126/1/27 127/1/27 45/1/27 29/1/27
f 127/1/28 126/1/28 30/1/28 46/1/28
f 127/1/3 128/1/3 43/1/3 45/1/3
f 128/1/4 127/1/4 46/1/4 44/1/4
f 128/1/17 125/1/17 27/1/17 43/1/17
f 125/1/18 128/1/18 44/1/18 28/1/18
f 129/1/13 130/1/13 31/1/13 29/1/13
f 130/1/14 129/1/14 30/1/14 32/1/14
f 130/1/29 131/1/29 47/1/29 31/1/29
f 131/1/30 130/1/30 32/1/30 48/1/30
f 131/1/5 132/1/5 45/1/5 47/1/5
f 132/1/6 131/1/6 48/1/6 46/1/6
f 132/1/21 129/1/21 29/1/21 45/1/21
f 129/1/22 132/1/22 46/1/22 30/1/22
f 133/1/15 134/1/15 17/1/15 31/1/15
f 134/1/16 133/1/16 32/1/16 18/1/16
f 134/1/31 135/1/31 33/1/31 17/1/31
f 135/1/32 134/1/32 18/1/32 34/1/32
f 135/1/7 136/1/7 47/1/7 33/1/7
f 136/1/8 135/1/8 34/1/8 48/1/8
f 136/1/25 133/1/25 31/1/25 47/1/25
f 133/1/26 136/1/26 48/1/26 32/1/26
f 137/1/1 138/1/1 35/1/1 33/1/1
f 138/1/2 137/1/2 34/1/2 36/1/2
f 138/1/17 139/1/17 51/1/17 35/1/17
f 139/1/18 138/1/18 36/1/18 52/1/18
f 139/1/9 140/1/9 49/1/9 51/1/9
f 140/1/10 139/1/10 52/1/10 50/1/10
f 140/1/19 137/1/19 33/1/19 49/1/19
f 137/1/20 140/1/20 50/1/20 34/1/20
f 141/1/3 142/1/3 37/1/3 35/1/3
f 142/1/4 141/1/4 36/1/4 38/1/4
f 142/1/21 143/1/21 53/1/21 37/1/21
f 143/1/22 142/1/22 38/1/22 54/1/22
f 143/1/11 144/1/11 51/1/11 53/1/11
f 144/1/12 143/1/12 54/1/12 52/1/12
f 144/1/23 141/1/23 35/1/23 51/1/23
f 141/1/24 144/1/24 52/1/24 36/1/24
f 145/1/5 146/1/5 39/1/5 37/1/5
f 146/1/6 145/1/6 38/1/6 40/1/6
f 146/1/25 147/1/25 55/1/25 39/1/25
f 147/1/26 146/1/26 40/1/26 56/1/26
f 147/1/13 148/1/13 53/1/13 55/1/13
f 148/1/14 147/1/14 56/1/14 54/1/14
f 148/1/27 145/1/27 37/1/27 53/1/27
f 145/1/28 148/1/28 54/1/28 38/1/28
f 149/1/7 150/1/7 41/1/7 39/1/7
f 150/1/8 149/1/8 40/1/8 42/1/8
f 150/1/19 151/1/19 57/1/19 41/1/19
f 151/1/20 150/1/20 42/1/20 58/1/20
f 151/1/15 152/1/15 55/1/15 57/1/15
f 152/1/16 151/1/16 58/1/16 56/1/16
f 152/1/29 149/1/29 39/1/29 55/1/29
f 149/1/30 152/1/30 56/1/30 40/1/30
f 153/1/9 154/1/9 43/1/9 41/1/9
f 154/1/10 153/1/10 42/1/10 44/1/10
f 154/1/23 155/1/23 59/1/23 43/1/23
f 155/1/24 154/1/24 44/1/24 60/1/24
f 155/1/1 156/1/1 57/1/1 59/1/1
f 156/1/2 155/1/2 60/1/2 58/1/2
f 156/1/31 153/1/31 41/1/31 57/1/31
f 153/1/32 156/1/32 58/1/32 42/1/32
f 157/1/11 158/1/11 45/1/11 43/1/11
f 158/1/12 157/1/12 44/1/12 46/1/12
f 158/1/27 159/1/27 61/1/27 45/1/27
f 159/1/28 158/1/28 46/1/28 62/1/28
f 159/1/3 160/1/3 59/1/3 61/1/3
f 160/1/4 159/1/4 62/1/4 60/1/4
f 160/1/17 157/1/17 43/1/17 59/1/17
f 157/1/18 160/1/18 60/1/18 44/1/18
f 161/1/13 162/1/13 47/1/13 45/1/13
f 162/1/14 161/1/14 46/1/14 48/1/14
f 162/1/29 163/1/29 63/1/29 47/1/29
f 163/1/30 162/1/30 48/1/30 64/1/30
f 163/1/5 164/1/5 61/1/5 63/1/5
f 164/1/6 163/1/6 64/1/6 62/1/6
f 164/1/21 161/1/21 45/1/21 61/1/21
f 161/1/22 164/1/22 62/1/22 46/1/22
f 165/1/15 166/1/15 33/1/15 47/1/15
f 166/1/16 165/1/16 48/1/16 34/1/16
f 166/1/31 167/1/31 49/1/31 33/1/31
f 167/1/32 166/1/32 34/1/32 50/1/32
f 167/1/7 168/1/7 63/1/7 49/1/7
f 168/1/8 167/1/8 50/1/8 64/1/8
f 168/1/25 165/1/25 47/1/25 63/1/25
f 165/1/26 168/1/26 64/1/26 48/1/26
